<?xml version="1.0" standalone="no"?>
<!DOCTYPE svg PUBLIC "-//W3C//DTD SVG 20010904//EN"
 "http://www.w3.org/TR/2001/REC-SVG-20010904/DTD/svg10.dtd">
<svg version="1.0" xmlns="http://www.w3.org/2000/svg"
 width="248.000000pt" height="248.000000pt" viewBox="0 0 248.000000 248.000000"
 preserveAspectRatio="xMidYMid meet">
<metadata>
Created by potrace 1.14, written by Peter Selinger 2001-2017
</metadata>
<g transform="translate(0.000000,248.000000) scale(0.100000,-0.100000)"
fill="#000000" stroke="none">
<path d="M1370 2430 c-30 -21 -60 -43 -66 -48 -6 -6 -25 -17 -42 -26 -18 -9
-32 -24 -32 -32 0 -14 32 -68 50 -84 6 -6 65 -127 75 -155 27 -78 36 -139 34
-238 -2 -113 4 -132 40 -120 45 16 102 116 118 208 12 67 9 219 -7 275 -7 25
-14 52 -15 60 -16 73 -73 200 -90 200 -5 0 -35 -18 -65 -40z"/>
<path d="M837 2379 c-52 -30 -40 -110 19 -129 42 -14 80 5 90 45 17 68 -49
119 -109 84z"/>
<path d="M1713 2328 c-32 -16 -45 -59 -27 -94 9 -16 21 -32 27 -36 23 -15 64
-8 85 15 57 61 -10 151 -85 115z"/>
<path d="M1007 2244 c-46 -24 -31 -93 22 -101 25 -3 61 25 61 50 0 47 -41 72
-83 51z"/>
<path d="M499 2204 c-6 -8 -9 -14 -6 -14 3 0 -1 -26 -9 -57 -22 -96 -20 -110
21 -115 38 -4 36 -6 69 96 22 68 21 71 -24 89 -33 13 -41 13 -51 1z"/>
<path d="M1741 2113 c-29 -19 -28 -67 1 -87 30 -21 44 -20 68 4 25 25 26 55 0
77 -26 22 -44 24 -69 6z"/>
<path d="M736 2028 l-35 -63 22 -17 c36 -28 54 -21 92 35 l36 52 -31 28 c-17
15 -34 27 -39 27 -5 0 -25 -28 -45 -62z"/>
<path d="M1131 2048 c-9 -25 3 -43 30 -45 24 -2 42 22 34 47 -9 28 -53 27 -64
-2z"/>
<path d="M2032 2003 c-20 -42 -9 -56 58 -78 36 -11 70 -23 75 -27 16 -10 32 4
44 35 13 33 14 70 3 63 -4 -2 -37 2 -72 9 -85 19 -98 18 -108 -2z"/>
<path d="M1722 1888 c-14 -19 4 -58 26 -58 30 0 46 24 32 49 -12 23 -42 28
-58 9z"/>
<path d="M941 1850 l-42 -31 18 -29 c9 -17 23 -30 30 -30 18 0 83 32 83 42 0
13 -33 78 -40 78 -4 0 -26 -14 -49 -30z"/>
<path d="M204 1809 c-31 -9 -54 -42 -54 -78 0 -28 38 -61 70 -61 44 0 58 9 70
46 20 59 -27 109 -86 93z"/>
<path d="M382 1808 c-20 -26 -21 -53 -2 -75 46 -57 126 6 84 66 -17 24 -65 29
-82 9z"/>
<path d="M1960 1776 c0 -7 -6 -19 -14 -25 -23 -19 -8 -44 46 -80 l52 -34 28
32 c34 38 29 49 -36 84 -65 35 -76 38 -76 23z"/>
<path d="M601 1766 c-17 -20 -4 -56 18 -56 28 0 47 28 34 48 -14 23 -37 26
-52 8z"/>
<path d="M2301 1678 c-53 -19 -66 -71 -28 -112 38 -43 96 -36 117 14 25 60
-30 120 -89 98z"/>
<path d="M1007 1580 c-6 -24 10 -60 28 -60 19 0 36 40 25 59 -11 20 -48 21
-53 1z"/>
<path d="M1798 1572 c-32 -19 -35 -42 -11 -83 20 -33 38 -36 73 -11 32 22 32
30 -5 75 -30 36 -30 36 -57 19z"/>
<path d="M266 1530 c-129 -28 -246 -77 -246 -104 0 -9 88 -137 120 -173 5 -7
10 -17 10 -23 0 -5 5 -10 11 -10 12 0 80 39 89 51 6 7 127 69 135 69 3 0 18 6
33 14 51 27 220 43 277 27 27 -7 50 -3 73 14 1 1 -3 15 -8 31 -13 36 -95 88
-171 108 -79 20 -219 18 -323 -4z"/>
<path d="M2166 1494 c-34 -33 -9 -94 37 -94 30 1 51 20 55 51 6 50 -57 79 -92
43z"/>
<path d="M1553 1482 c-35 -5 -28 -59 7 -56 8 1 22 2 31 3 12 1 15 8 12 25 -6
27 -17 34 -50 28z"/>
<path d="M2014 1347 c-18 -21 1 -57 30 -57 30 0 40 14 32 46 -7 26 -43 33 -62
11z"/>
<path d="M2283 1237 c-68 -57 -213 -122 -305 -137 -29 -4 -82 -6 -118 -3 -130
11 -125 12 -121 -22 1 -16 7 -37 11 -46 7 -13 99 -66 122 -70 4 -1 32 -7 63
-14 31 -8 94 -12 147 -10 101 4 113 6 197 31 31 9 62 17 69 17 6 0 12 4 12 9
0 4 3 7 8 6 4 -1 24 6 46 15 21 9 42 17 46 17 25 0 13 37 -32 102 -28 40 -56
76 -62 80 -6 4 -7 8 -2 8 5 0 1 9 -9 20 -23 26 -37 25 -72 -3z"/>
<path d="M432 1187 c-25 -32 -13 -67 22 -67 17 0 25 11 31 39 4 24 -38 46 -53
28z"/>
<path d="M257 1072 c-25 -28 -25 -62 -1 -86 30 -31 81 -12 89 34 6 33 -5 49
-42 59 -25 7 -35 6 -46 -7z"/>
<path d="M899 1052 c-6 -53 -7 -52 29 -50 36 2 52 22 34 40 -13 13 -62 20 -63
10z"/>
<path d="M675 1021 c-28 -5 -65 -31 -65 -46 0 -6 9 -20 20 -30 11 -10 17 -21
15 -26 -11 -16 37 -20 60 -5 30 20 31 31 7 76 -12 25 -23 34 -37 31z"/>
<path d="M1436 935 c-8 -33 -1 -45 30 -45 20 0 24 5 24 29 0 26 -14 41 -40 41
-4 0 -11 -11 -14 -25z"/>
<path d="M126 925 c-14 -13 -27 -30 -27 -37 -5 -51 15 -76 66 -88 38 -9 56 4
74 53 26 67 -60 121 -113 72z"/>
<path d="M422 811 c-12 -17 -20 -36 -17 -43 5 -14 102 -68 121 -68 15 0 38 55
29 69 -8 14 -91 71 -102 71 -5 0 -19 -13 -31 -29z"/>
<path d="M2244 805 c-42 -17 -57 -54 -38 -91 19 -36 31 -44 70 -44 58 0 90 75
50 119 -24 26 -48 31 -82 16z"/>
<path d="M1846 758 c-17 -25 -11 -45 16 -54 27 -8 52 17 44 44 -10 29 -43 34
-60 10z"/>
<path d="M1033 733 c-18 -18 -38 -49 -44 -68 -7 -19 -16 -35 -19 -35 -4 0 -7
-6 -8 -12 0 -7 -4 -29 -9 -48 -4 -19 -8 -82 -8 -140 0 -99 5 -141 20 -200 4
-14 8 -32 10 -40 6 -35 71 -180 80 -180 13 0 65 34 65 42 0 4 5 8 10 8 9 0 37
18 118 77 29 21 28 31 -9 75 -30 37 -106 189 -115 231 -18 80 -22 133 -18 213
4 87 4 91 -19 101 -20 9 -27 6 -54 -24z"/>
<path d="M2029 746 c-16 -35 -4 -74 25 -82 56 -14 91 29 67 82 -8 19 -18 24
-46 24 -28 0 -38 -5 -46 -24z"/>
<path d="M1505 708 c-40 -21 -45 -37 -25 -71 17 -28 50 -46 50 -28 0 4 11 14
24 21 33 17 40 38 21 66 -17 26 -39 30 -70 12z"/>
<path d="M727 649 c-27 -16 -22 -57 9 -65 28 -7 44 7 44 38 0 23 -31 39 -53
27z"/>
<path d="M292 563 c-24 -60 -21 -67 33 -80 28 -7 70 -14 95 -15 l45 -3 3 36 3
37 -73 23 c-40 13 -78 25 -84 27 -6 1 -16 -10 -22 -25z"/>
<path d="M1711 539 c-12 -11 -21 -23 -21 -28 0 -4 -11 -21 -25 -36 -15 -18
-21 -33 -15 -40 17 -20 66 -44 77 -37 11 7 63 105 63 119 0 4 -13 15 -29 25
-28 15 -30 15 -50 -3z"/>
<path d="M1300 458 c-12 -31 22 -63 51 -48 33 18 21 70 -17 70 -16 0 -28 -8
-34 -22z"/>
<path d="M686 454 c-23 -22 -20 -71 3 -84 31 -16 59 -12 75 11 38 55 -31 120
-78 73z"/>
<path d="M1946 438 c-25 -59 -44 -135 -38 -145 4 -6 26 -14 49 -18 35 -5 42
-4 46 12 9 31 29 164 26 167 -2 2 -19 7 -37 11 -30 6 -33 4 -46 -27z"/>
<path d="M1422 328 c-7 -7 -12 -26 -12 -43 0 -38 16 -55 52 -55 47 0 70 56 39
94 -16 19 -62 21 -79 4z"/>
<path d="M702 274 c-28 -19 -31 -83 -4 -107 47 -43 122 -13 122 48 0 62 -66
96 -118 59z"/>
<path d="M1573 220 c-31 -28 -36 -55 -18 -89 22 -43 76 -53 111 -20 24 22 32
71 16 96 -8 12 -55 33 -76 33 -7 0 -22 -9 -33 -20z"/>
</g>
</svg>
